# xmcd
#
# Track frame offsets:
#	150
#	18656
#	40823
#	59052
#	78063
#	98143
#	121780
#	140429
#	156676
#	173609
#	188313
#	206464
#	225659
#	239505
#
# Disc length: 3400 seconds
#
# Revision: 0
# Processed by: cddbd v1.5.2PL0 Copyright (c) Steve Scherf et al.
# Submitted via: EasyCDDAExtractor 2010.4.0.0
#
DISCID=b20d460e
DTITLE=Kapela z Chmielnej - Kantrydans
DYEAR=2002
DGENRE=Tango
TTITLE0=Panna Andzia ma wychodne
TTITLE1=Syn ulicy
TTITLE2=Na Syrku
TTITLE3=Bal na Gnojnej
TTITLE4=Jadziem Panie Zielonka
TTITLE5=Hanko
TTITLE6=Białe bzy
TTITLE7=Cicha woda
TTITLE8=Tęsknota
TTITLE9=Murka
TTITLE10=Kogutka w ogonek
TTITLE11=Tango Milonga
TTITLE12=Ballada bokserska
TTITLE13=Szklarz Urbanek
EXTD=
EXTT0=
EXTT1=
EXTT2=
EXTT3=
EXTT4=
EXTT5=
EXTT6=
EXTT7=
EXTT8=
EXTT9=
EXTT10=
EXTT11=
EXTT12=
EXTT13=
PLAYORDER=
